<svg width="47" height="47" viewBox="0 0 47 47" fill="none" xmlns="http://www.w3.org/2000/svg">
<path opacity="0.4" d="M23.4245 42.8356C33.9785 42.8356 42.5341 34.28 42.5341 23.726C42.5341 13.1721 33.9785 4.61645 23.4245 4.61645C12.8706 4.61645 4.31494 13.1721 4.31494 23.726C4.31494 34.28 12.8706 42.8356 23.4245 42.8356Z" fill="black"/>
<path d="M17.0801 23.5541L20.2332 24.3376L18.4178 31.6756C17.9974 33.3955 18.8382 33.9689 20.2905 32.9561L30.1893 26.0957C31.3932 25.2548 31.2212 24.2802 29.788 23.9171L26.6349 23.1337L28.4504 15.7956C28.8708 14.0757 28.0299 13.5024 26.5776 14.5153L16.6788 21.3756C15.4749 22.2165 15.6469 23.191 17.0801 23.5541Z" fill="black"/>
</svg>
