<svg width="41" height="40" viewBox="0 0 41 40" fill="none" xmlns="http://www.w3.org/2000/svg">
<path d="M20.5001 11.6667C21.4206 11.6667 22.1667 12.4129 22.1667 13.3333V20C22.1667 20.9205 21.4206 21.6667 20.5001 21.6667C19.5796 21.6667 18.8334 20.9205 18.8334 20V13.3333C18.8334 12.4129 19.5796 11.6667 20.5001 11.6667Z" fill="#060606"/>
<path d="M20.5001 25C19.5796 25 18.8334 25.7462 18.8334 26.6667C18.8334 27.5871 19.5796 28.3333 20.5001 28.3333H20.5167C21.4372 28.3333 22.1834 27.5871 22.1834 26.6667C22.1834 25.7462 21.4372 25 20.5167 25H20.5001Z" fill="#060606"/>
<path fill-rule="evenodd" clip-rule="evenodd" d="M2.16675 20C2.16675 9.87478 10.3749 1.66667 20.5001 1.66667C30.6253 1.66667 38.8334 9.87478 38.8334 20C38.8334 30.1252 30.6253 38.3333 20.5001 38.3333C10.3749 38.3333 2.16675 30.1252 2.16675 20ZM20.5001 5C12.2158 5 5.50008 11.7157 5.50008 20C5.50008 28.2843 12.2158 35 20.5001 35C28.7844 35 35.5001 28.2843 35.5001 20C35.5001 11.7157 28.7844 5 20.5001 5Z" fill="#060606"/>
</svg>
