<svg width="49" height="45" viewBox="0 0 49 45" fill="none" xmlns="http://www.w3.org/2000/svg">
<g filter="url(#filter0_b_603_429)">
<rect x="0.872559" y="0.891014" width="47.7091" height="43.2364" rx="7.15846" fill="#090B0F"/>
</g>
<path d="M28.5642 21.8957C28.2647 21.8957 27.9653 21.7458 27.7906 21.4834L23.7977 15.5118C23.6605 15.2994 23.6105 15.0495 23.6605 14.8122C23.7104 14.5748 23.8476 14.3499 24.0597 14.2125L31.1221 9.47759C31.6711 9.1028 32.3324 8.97788 32.9813 9.10281C33.6301 9.22774 34.1916 9.60253 34.5659 10.1522L36.8369 13.5378C37.598 14.6747 37.2986 16.2239 36.1506 16.9859L29.1007 21.7208C28.926 21.8457 28.7514 21.8957 28.5642 21.8957ZM25.8815 15.2494L28.8262 19.6595L35.1025 15.4493C35.3895 15.2619 35.4643 14.8746 35.2647 14.5998L32.9938 11.2141C32.9064 11.0767 32.7692 10.9893 32.607 10.9518C32.4447 10.9143 32.2825 10.9518 32.1453 11.0392L25.8815 15.2494Z" fill="white"/>
<path d="M22.2132 25.2939C21.9137 25.2939 21.6143 25.144 21.4396 24.8817L18.2453 20.1092C17.9583 19.6845 18.0706 19.0973 18.5073 18.8099L24.4717 14.8121C24.6838 14.6747 24.9334 14.6247 25.1704 14.6747C25.42 14.7247 25.6321 14.8621 25.7694 15.0745L28.9637 19.8469C29.2507 20.2717 29.1384 20.8589 28.7016 21.1462L22.7373 25.144C22.5751 25.2439 22.3879 25.2939 22.2132 25.2939ZM20.3166 19.8469L22.4628 23.0577L26.8674 20.1092L24.7212 16.886L20.3166 19.8469Z" fill="white"/>
<path d="M16.3983 28.5172C15.6995 28.5172 15.0008 28.1799 14.5765 27.5428L13.1665 25.4439C12.8421 24.9567 12.7298 24.382 12.8421 23.8073C12.9544 23.2326 13.2788 22.7454 13.7655 22.4206L18.6942 19.1224C19.1184 18.8351 19.7048 18.9475 19.9918 19.3848L22.7868 23.5575C23.0738 23.9822 22.9615 24.5694 22.5248 24.8568L17.5961 28.1549C17.2343 28.3923 16.81 28.5172 16.3983 28.5172ZM18.9562 21.1838L14.8136 23.9573C14.6763 24.0572 14.6264 24.2446 14.7262 24.3945L16.1362 26.4934C16.236 26.6308 16.4232 26.6807 16.5729 26.5808L20.7155 23.8073L18.9562 21.1838Z" fill="white"/>
<path d="M19.2436 35.9256C19.1188 35.9256 18.9816 35.9006 18.8568 35.8381C18.3827 35.6257 18.183 35.0635 18.3951 34.6013L23.9976 22.358C24.2098 21.8833 24.7713 21.6833 25.2329 21.8957C25.7071 22.1081 25.9067 22.6703 25.6946 23.1326L20.0921 35.3759C19.9299 35.7257 19.593 35.9256 19.2436 35.9256Z" fill="white"/>
<path d="M30.3239 35.9255C29.9621 35.9255 29.6252 35.7256 29.4754 35.3758L23.9354 23.1325C23.7232 22.6578 23.9354 22.1081 24.397 21.8957C24.8587 21.6833 25.4202 21.8957 25.6323 22.358L31.1724 34.6012C31.3845 35.076 31.1724 35.6257 30.7107 35.838C30.586 35.9005 30.4612 35.9255 30.3239 35.9255Z" fill="white"/>
<defs>
<filter id="filter0_b_603_429" x="-42.0782" y="-42.0597" width="133.611" height="129.138" filterUnits="userSpaceOnUse" color-interpolation-filters="sRGB">
<feFlood flood-opacity="0" result="BackgroundImageFix"/>
<feGaussianBlur in="BackgroundImageFix" stdDeviation="21.4754"/>
<feComposite in2="SourceAlpha" operator="in" result="effect1_backgroundBlur_603_429"/>
<feBlend mode="normal" in="SourceGraphic" in2="effect1_backgroundBlur_603_429" result="shape"/>
</filter>
</defs>
</svg>
