<svg width="111" height="46" viewBox="0 0 111 46" fill="none" xmlns="http://www.w3.org/2000/svg">
<path d="M16.7805 23.1294H21.1683C20.5262 25.5915 19.2898 27.4706 17.4806 28.7542C15.66 30.1077 13.3844 30.7731 10.6307 30.7731C7.29307 30.7731 4.67927 29.6878 2.81212 27.5172C0.933576 25.4051 0 22.3828 0 18.4616C0 14.5403 0.910275 11.7748 2.71892 9.66276C4.59746 7.49218 7.19987 6.40689 10.5375 6.40689C14.0502 6.40689 16.7805 7.45697 18.7062 9.56956C20.5847 11.7401 21.5183 14.7625 21.5183 18.6252V19.594C21.5302 19.8042 21.5064 20.0139 21.4251 20.2122H6.23161C6.29012 22.0328 6.73334 23.3749 7.55042 24.2613C8.30898 25.1949 9.45278 25.6733 10.9813 25.6733C11.9734 25.6733 12.8251 25.4631 13.5252 25.0551C13.7121 24.9966 13.8752 24.8915 14.0036 24.7517L14.4821 24.2732C14.5406 24.0982 14.7622 23.8647 15.1355 23.5732C15.5089 23.2817 16.081 23.13 16.7811 23.13L16.7805 23.1294ZM6.23109 16.2677H15.1935C15.077 14.6807 14.6685 13.5136 13.9684 12.755C13.2099 11.9379 12.1246 11.5299 10.7126 11.518C9.42896 11.518 8.36697 11.9265 7.5499 12.755C6.73283 13.5721 6.2896 14.7387 6.23109 16.2677Z" fill="url(#paint0_linear_1102_4179)"/>
<path d="M45.1252 30.3405H42.0444C41.1693 30.3405 40.4454 30.0604 39.8971 29.5002C39.3369 28.9399 39.0567 28.228 39.0567 27.3415V15.3919C39.0567 13.9799 38.6368 12.9531 37.7845 12.3111C36.9674 11.6809 35.964 11.3423 34.9253 11.3423C33.9099 11.3304 32.9064 11.669 32.1132 12.3111C31.2961 12.9531 30.8881 13.9799 30.8881 15.3919V30.3405H24.7383V16.617C24.7383 12.6259 25.777 9.9655 27.8538 8.61199C29.9079 7.26988 32.3001 6.51132 34.7503 6.41812C37.2709 6.40621 39.733 7.10678 41.8688 8.43698C44.0394 9.79048 45.1247 12.5094 45.1247 16.6175V30.3411L45.1252 30.3405Z" fill="url(#paint1_linear_1102_4179)"/>
<path d="M51.2414 28.2286C50.0163 27.1785 49.1294 25.7546 48.6043 23.9573C48.0793 22.1487 47.8105 20.2582 47.8105 18.3678C47.8105 16.7575 48.0322 15.1585 48.464 13.6181C48.9072 12.0311 49.5959 10.7123 50.5295 9.66218C52.0466 7.90014 54.0188 6.86145 56.411 6.53473C58.8151 6.208 60.9857 6.40631 62.9109 7.10637C65.1399 7.98143 66.7736 9.51047 67.8356 11.681C68.8276 13.6181 69.3294 15.8705 69.3294 18.4496C69.3294 20.3281 69.1192 21.939 68.7111 23.2925C68.3026 24.646 67.7776 25.7898 67.1241 26.7234C65.724 28.6604 63.9268 29.8627 61.7676 30.3293C59.8652 30.8543 57.8583 30.9009 55.9212 30.4577C53.9723 30.0377 52.4085 29.2906 51.2419 28.2286H51.2414ZM55.4542 12.7549C54.2291 14.1084 53.6688 16.1159 53.7853 18.7763C53.9018 21.4486 54.4036 23.3039 55.2792 24.3659C55.6292 24.8324 56.2479 25.2295 57.123 25.5563C57.9867 25.883 58.9203 25.9063 59.8072 25.6495C60.7175 25.3812 61.5227 24.7278 62.2227 23.6658C62.9228 22.6157 63.308 20.9117 63.3665 18.5661C63.3665 16.454 63.0279 14.867 62.3511 13.8164C61.6744 12.7663 60.9039 12.0896 60.0174 11.7975C59.1657 11.506 58.2435 11.4941 57.3803 11.7509C56.5167 12.0078 55.8632 12.3345 55.4547 12.7544L55.4542 12.7549Z" fill="url(#paint2_linear_1102_4179)"/>
<path d="M72.5605 30.3407V18.998C72.5605 16.7109 72.8992 14.7853 73.5759 13.2334C74.2527 11.6816 75.1749 10.4327 76.3415 9.49914C77.4966 8.60077 78.8268 7.93541 80.2508 7.56209C81.756 7.15355 83.3083 6.94385 84.8601 6.94385H85.7352V13.1868H83.7163C82.0128 13.1868 80.7525 13.5954 79.9354 14.4238C79.1184 15.2409 78.7103 16.5359 78.7103 18.2979V30.3526L72.5605 30.3407Z" fill="url(#paint3_linear_1102_4179)"/>
<path d="M104.067 0.000303908H107.055C107.86 -0.0116053 108.631 0.327032 109.167 0.921973C109.751 1.54021 110.042 2.22888 110.042 2.98744V20.1418C110.042 24.308 108.84 27.1201 106.436 28.5906C104.091 30.0378 101.372 30.8078 98.6176 30.7845C97.0891 30.7845 95.5834 30.5277 94.1367 30.0378C92.6661 29.5361 91.4996 28.7309 90.624 27.6223C88.9205 25.4518 88.0801 22.4879 88.0801 18.7417C88.0801 14.9955 88.9318 12.0902 90.624 9.8611C92.386 7.57402 94.6384 6.43022 97.3925 6.43022C98.8512 6.43022 100.147 6.72174 101.255 7.30529C102.399 7.98204 103.356 8.91562 104.067 10.0361V0.000303908ZM94.0435 18.4616C94.0435 20.8072 94.4867 22.5925 95.3623 23.8295C96.2373 25.0665 97.4976 25.6734 99.1432 25.6734C100.789 25.6734 101.955 25.0551 102.831 23.8295C103.648 22.5925 104.056 20.8072 104.056 18.4616C104.056 16.3495 103.613 14.6807 102.737 13.4437C101.804 12.2766 100.543 11.6817 98.9563 11.6817C97.3692 11.6817 96.2254 12.2999 95.3504 13.5255C94.4867 14.7159 94.0435 16.3614 94.0435 18.4616Z" fill="url(#paint4_linear_1102_4179)"/>
<path d="M2.42688 45.1269C1.66936 44.7044 1.07545 44.1224 0.645166 43.3809C0.214365 42.6399 0 41.8053 0 40.8779C0 39.9505 0.214882 39.1159 0.645166 38.3749C1.07597 37.6339 1.67194 37.0514 2.43413 36.6289C3.19632 36.2064 4.04808 35.9941 4.98994 35.9941C5.72521 35.9941 6.3973 36.1189 7.00777 36.37C7.61669 36.6196 8.13759 36.9908 8.56787 37.4822L7.69384 38.3423C6.98551 37.5873 6.10216 37.2104 5.04483 37.2104C4.34581 37.2104 3.71359 37.3693 3.14868 37.6878C2.58377 38.0062 2.14158 38.4453 1.82417 39.004C1.50573 39.5632 1.34677 40.1887 1.34677 40.8805C1.34677 41.5722 1.50573 42.1967 1.82417 42.757C2.14262 43.3162 2.58377 43.7547 3.14868 44.0732C3.71359 44.3916 4.34581 44.5506 5.04483 44.5506C6.09387 44.5506 6.97722 44.169 7.69384 43.4047L8.56787 44.2648C8.13707 44.7561 7.61566 45.1295 7.00052 45.3837C6.38694 45.6379 5.71123 45.7653 4.977 45.7653C4.0341 45.7617 3.18441 45.5504 2.4274 45.1269H2.42688Z" fill="url(#paint5_linear_1102_4179)"/>
<path d="M16.7835 45.6532L14.7532 42.7194C14.5021 42.738 14.3053 42.7463 14.1614 42.7463H11.8344V45.6521H10.4902V36.102H14.1614C15.3808 36.102 16.3402 36.3971 17.0392 36.989C17.7383 37.5808 18.0883 38.3937 18.0883 39.4314C18.0883 40.1677 17.9086 40.7958 17.5503 41.3136C17.192 41.8319 16.6809 42.2099 16.0171 42.4455L18.2493 45.6511H16.7835V45.6537V45.6532ZM16.0705 41.0272C16.5183 40.6549 16.7426 40.1226 16.7426 39.4309C16.7426 38.7391 16.5183 38.2105 16.0705 37.8413C15.6226 37.4726 14.9722 37.2893 14.1205 37.2893H11.8344V41.587H14.1205C14.9722 41.587 15.6226 41.4 16.0705 41.0267V41.0272Z" fill="url(#paint6_linear_1102_4179)"/>
<path d="M27.0968 44.4654V45.6521H20.2656V36.102H26.9089V37.2888H21.6108V40.2226H26.331V41.3824H21.6108V44.4654H27.0968Z" fill="url(#paint7_linear_1102_4179)"/>
<path d="M35.2746 43.2656H30.2717L29.2367 45.6531H27.8516L32.1145 36.103H33.4458L37.7227 45.6531H36.3107L35.2746 43.2656ZM34.8029 42.1736L32.7726 37.4943L30.7424 42.1736H34.8034H34.8029Z" fill="url(#paint8_linear_1102_4179)"/>
<path d="M40.5189 37.2899H37.291V36.1031H45.077V37.2899H41.8491V45.6533H40.5179V37.2899H40.5189Z" fill="url(#paint9_linear_1102_4179)"/>
<path d="M46.543 36.103H47.8871V45.6531H46.543V36.103Z" fill="url(#paint10_linear_1102_4179)"/>
<path d="M58.808 36.103V45.6531H57.7051L52.0571 38.5314V45.6531H50.7129V36.103H51.8158L57.4638 43.2247V36.103H58.808Z" fill="url(#paint11_linear_1102_4179)"/>
<path d="M68.1526 40.8235H69.4435V44.5484C68.9769 44.9394 68.4353 45.2392 67.8166 45.4494C67.1983 45.6581 66.5526 45.7632 65.8805 45.7632C64.9304 45.7632 64.074 45.5519 63.3123 45.1284C62.5501 44.7059 61.9516 44.1239 61.5176 43.3824C61.0822 42.6414 60.8652 41.8067 60.8652 40.8794C60.8652 39.952 61.0822 39.1148 61.5176 38.3691C61.9531 37.6235 62.5527 37.041 63.3196 36.6232C64.0864 36.2053 64.9485 35.9951 65.908 35.9951C66.6609 35.9951 67.3443 36.1199 67.9584 36.371C68.572 36.6206 69.095 36.9872 69.5258 37.4692L68.6916 38.3153C67.9388 37.579 67.0285 37.2103 65.9624 37.2103C65.2447 37.2103 64.6016 37.3667 64.032 37.6805C63.4625 37.9943 63.0166 38.4308 62.6935 38.99C62.3704 39.5492 62.2094 40.1793 62.2094 40.8794C62.2094 41.5794 62.3704 42.1956 62.6935 42.7559C63.0166 43.3151 63.4625 43.7536 64.032 44.0721C64.6016 44.3905 65.24 44.5495 65.9484 44.5495C66.7908 44.5495 67.5261 44.3455 68.1542 43.9359V40.8235H68.1526Z" fill="url(#paint12_linear_1102_4179)"/>
<path d="M82.8371 44.4659V45.6527H76.0059V36.1026H82.6491V37.2894H77.3511V40.2232H82.0713V41.383H77.3511V44.4659H82.8371Z" fill="url(#paint13_linear_1102_4179)"/>
<path d="M91.0129 43.2657H86.01L84.9749 45.6533H83.5898L87.8528 36.1031H89.184L93.461 45.6533H92.049L91.0129 43.2657ZM90.5417 42.1737L88.5114 37.4944L86.4812 42.1737H90.5422H90.5417Z" fill="url(#paint14_linear_1102_4179)"/>
<path d="M95.5514 45.4284C94.8923 45.2058 94.375 44.9174 93.998 44.5627L94.4951 43.4986C94.8534 43.8264 95.3132 44.0925 95.8735 44.2971C96.4337 44.5011 97.01 44.6041 97.6019 44.6041C98.3811 44.6041 98.9647 44.47 99.3499 44.2013C99.7352 43.9331 99.9288 43.5758 99.9288 43.13C99.9288 42.8022 99.8237 42.5361 99.6124 42.3315C99.4012 42.1275 99.1423 41.9696 98.8332 41.8614C98.524 41.7516 98.0865 41.6294 97.5216 41.4927C96.8133 41.3198 96.2416 41.1474 95.8072 40.9744C95.3717 40.8015 95.001 40.5358 94.6903 40.176C94.3812 39.8166 94.2259 39.3325 94.2259 38.7231C94.2259 38.2141 94.3579 37.7543 94.6225 37.3447C94.8871 36.9351 95.2879 36.6084 95.8258 36.3619C96.3638 36.1155 97.0313 35.9933 97.8297 35.9933C98.3853 35.9933 98.9326 36.0658 99.4706 36.2113C100.009 36.3573 100.47 36.566 100.856 36.8393L100.412 37.9303C100.018 37.6761 99.5969 37.4824 99.1485 37.3504C98.7006 37.2184 98.2605 37.1521 97.8312 37.1521C97.0691 37.1521 96.4974 37.2934 96.1168 37.5746C95.7352 37.8568 95.5452 38.2198 95.5452 38.6656C95.5452 38.9933 95.6524 39.2595 95.8683 39.464C96.0832 39.668 96.3504 39.828 96.6688 39.9414C96.9873 40.0559 97.4191 40.176 97.9664 40.3034C98.6747 40.4763 99.2443 40.6487 99.6746 40.8217C100.105 40.9946 100.475 41.2582 100.784 41.6128C101.093 41.9675 101.249 42.4449 101.249 43.0461C101.249 43.5468 101.115 44.003 100.845 44.4172C100.577 44.8314 100.168 45.1582 99.6207 45.4C99.0734 45.6418 98.4013 45.7619 97.6029 45.7619C96.8935 45.7629 96.2106 45.6521 95.5514 45.4295V45.4284Z" fill="url(#paint15_linear_1102_4179)"/>
<path d="M110.042 44.466V45.6528H103.211V36.1026H109.854V37.2894H104.556V40.2232H109.276V41.3831H104.556V44.466H110.042Z" fill="url(#paint16_linear_1102_4179)"/>
<defs>
<linearGradient id="paint0_linear_1102_4179" x1="10.7602" y1="-19.7006" x2="10.7602" y2="44.3956" gradientUnits="userSpaceOnUse">
<stop offset="0.24" stop-color="#8C8886"/>
<stop offset="0.35" stop-color="#A8A5A3"/>
<stop offset="0.57" stop-color="#EEEDED"/>
<stop offset="0.63" stop-color="white"/>
<stop offset="0.84" stop-color="#BCB9B8"/>
<stop offset="1" stop-color="#8C8886"/>
</linearGradient>
<linearGradient id="paint1_linear_1102_4179" x1="34.932" y1="-19.7008" x2="34.932" y2="44.3954" gradientUnits="userSpaceOnUse">
<stop offset="0.24" stop-color="#8C8886"/>
<stop offset="0.35" stop-color="#A8A5A3"/>
<stop offset="0.57" stop-color="#EEEDED"/>
<stop offset="0.63" stop-color="white"/>
<stop offset="0.84" stop-color="#BCB9B8"/>
<stop offset="1" stop-color="#8C8886"/>
</linearGradient>
<linearGradient id="paint2_linear_1102_4179" x1="58.5697" y1="-19.7007" x2="58.5697" y2="44.3955" gradientUnits="userSpaceOnUse">
<stop offset="0.24" stop-color="#8C8886"/>
<stop offset="0.35" stop-color="#A8A5A3"/>
<stop offset="0.57" stop-color="#EEEDED"/>
<stop offset="0.63" stop-color="white"/>
<stop offset="0.84" stop-color="#BCB9B8"/>
<stop offset="1" stop-color="#8C8886"/>
</linearGradient>
<linearGradient id="paint3_linear_1102_4179" x1="79.1484" y1="-19.7006" x2="79.1484" y2="44.3956" gradientUnits="userSpaceOnUse">
<stop offset="0.24" stop-color="#8C8886"/>
<stop offset="0.35" stop-color="#A8A5A3"/>
<stop offset="0.57" stop-color="#EEEDED"/>
<stop offset="0.63" stop-color="white"/>
<stop offset="0.84" stop-color="#BCB9B8"/>
<stop offset="1" stop-color="#8C8886"/>
</linearGradient>
<linearGradient id="paint4_linear_1102_4179" x1="99.0609" y1="-19.7006" x2="99.0609" y2="44.3956" gradientUnits="userSpaceOnUse">
<stop offset="0.24" stop-color="#8C8886"/>
<stop offset="0.35" stop-color="#A8A5A3"/>
<stop offset="0.57" stop-color="#EEEDED"/>
<stop offset="0.63" stop-color="white"/>
<stop offset="0.84" stop-color="#BCB9B8"/>
<stop offset="1" stop-color="#8C8886"/>
</linearGradient>
<linearGradient id="paint5_linear_1102_4179" x1="4.28368" y1="13.7094" x2="4.28368" y2="76.4263" gradientUnits="userSpaceOnUse">
<stop stop-color="#181818"/>
<stop offset="0.05" stop-color="#7A7A7A"/>
<stop offset="0.15" stop-color="#AFAFAF"/>
<stop offset="0.27" stop-color="white"/>
<stop offset="0.29" stop-color="#F9F9F9"/>
<stop offset="0.53" stop-color="#D0CFD0"/>
</linearGradient>
<linearGradient id="paint6_linear_1102_4179" x1="14.3695" y1="13.7091" x2="14.3695" y2="76.4259" gradientUnits="userSpaceOnUse">
<stop stop-color="#181818"/>
<stop offset="0.05" stop-color="#7A7A7A"/>
<stop offset="0.15" stop-color="#AFAFAF"/>
<stop offset="0.27" stop-color="white"/>
<stop offset="0.29" stop-color="#F9F9F9"/>
<stop offset="0.53" stop-color="#D0CFD0"/>
</linearGradient>
<linearGradient id="paint7_linear_1102_4179" x1="23.681" y1="13.7091" x2="23.681" y2="76.4259" gradientUnits="userSpaceOnUse">
<stop stop-color="#181818"/>
<stop offset="0.05" stop-color="#7A7A7A"/>
<stop offset="0.15" stop-color="#AFAFAF"/>
<stop offset="0.27" stop-color="white"/>
<stop offset="0.29" stop-color="#F9F9F9"/>
<stop offset="0.53" stop-color="#D0CFD0"/>
</linearGradient>
<linearGradient id="paint8_linear_1102_4179" x1="32.7871" y1="13.7091" x2="32.7871" y2="76.4259" gradientUnits="userSpaceOnUse">
<stop stop-color="#181818"/>
<stop offset="0.05" stop-color="#7A7A7A"/>
<stop offset="0.15" stop-color="#AFAFAF"/>
<stop offset="0.27" stop-color="white"/>
<stop offset="0.29" stop-color="#F9F9F9"/>
<stop offset="0.53" stop-color="#D0CFD0"/>
</linearGradient>
<linearGradient id="paint9_linear_1102_4179" x1="41.1838" y1="13.7093" x2="41.1838" y2="76.426" gradientUnits="userSpaceOnUse">
<stop stop-color="#181818"/>
<stop offset="0.05" stop-color="#7A7A7A"/>
<stop offset="0.15" stop-color="#AFAFAF"/>
<stop offset="0.27" stop-color="white"/>
<stop offset="0.29" stop-color="#F9F9F9"/>
<stop offset="0.53" stop-color="#D0CFD0"/>
</linearGradient>
<linearGradient id="paint10_linear_1102_4179" x1="47.2151" y1="13.7096" x2="47.2151" y2="76.4264" gradientUnits="userSpaceOnUse">
<stop stop-color="#181818"/>
<stop offset="0.05" stop-color="#7A7A7A"/>
<stop offset="0.15" stop-color="#AFAFAF"/>
<stop offset="0.27" stop-color="white"/>
<stop offset="0.29" stop-color="#F9F9F9"/>
<stop offset="0.53" stop-color="#D0CFD0"/>
</linearGradient>
<linearGradient id="paint11_linear_1102_4179" x1="54.7605" y1="13.7096" x2="54.7605" y2="76.4264" gradientUnits="userSpaceOnUse">
<stop stop-color="#181818"/>
<stop offset="0.05" stop-color="#7A7A7A"/>
<stop offset="0.15" stop-color="#AFAFAF"/>
<stop offset="0.27" stop-color="white"/>
<stop offset="0.29" stop-color="#F9F9F9"/>
<stop offset="0.53" stop-color="#D0CFD0"/>
</linearGradient>
<linearGradient id="paint12_linear_1102_4179" x1="65.195" y1="13.7094" x2="65.195" y2="76.4262" gradientUnits="userSpaceOnUse">
<stop stop-color="#181818"/>
<stop offset="0.05" stop-color="#7A7A7A"/>
<stop offset="0.15" stop-color="#AFAFAF"/>
<stop offset="0.27" stop-color="white"/>
<stop offset="0.29" stop-color="#F9F9F9"/>
<stop offset="0.53" stop-color="#D0CFD0"/>
</linearGradient>
<linearGradient id="paint13_linear_1102_4179" x1="79.4212" y1="-1.53244" x2="79.4212" y2="61.1838" gradientUnits="userSpaceOnUse">
<stop stop-color="#181818"/>
<stop offset="0.05" stop-color="#7A7A7A"/>
<stop offset="0.15" stop-color="#AFAFAF"/>
<stop offset="0.27" stop-color="white"/>
<stop offset="0.29" stop-color="#F9F9F9"/>
<stop offset="0.53" stop-color="#D0CFD0"/>
</linearGradient>
<linearGradient id="paint14_linear_1102_4179" x1="88.5254" y1="-1.53294" x2="88.5254" y2="61.1833" gradientUnits="userSpaceOnUse">
<stop stop-color="#181818"/>
<stop offset="0.05" stop-color="#7A7A7A"/>
<stop offset="0.15" stop-color="#AFAFAF"/>
<stop offset="0.27" stop-color="white"/>
<stop offset="0.29" stop-color="#F9F9F9"/>
<stop offset="0.53" stop-color="#D0CFD0"/>
</linearGradient>
<linearGradient id="paint15_linear_1102_4179" x1="97.6236" y1="-1.53254" x2="97.6236" y2="61.1838" gradientUnits="userSpaceOnUse">
<stop stop-color="#181818"/>
<stop offset="0.05" stop-color="#7A7A7A"/>
<stop offset="0.15" stop-color="#AFAFAF"/>
<stop offset="0.27" stop-color="white"/>
<stop offset="0.29" stop-color="#F9F9F9"/>
<stop offset="0.53" stop-color="#D0CFD0"/>
</linearGradient>
<linearGradient id="paint16_linear_1102_4179" x1="106.626" y1="-1.53239" x2="106.626" y2="61.1839" gradientUnits="userSpaceOnUse">
<stop stop-color="#181818"/>
<stop offset="0.05" stop-color="#7A7A7A"/>
<stop offset="0.15" stop-color="#AFAFAF"/>
<stop offset="0.27" stop-color="white"/>
<stop offset="0.29" stop-color="#F9F9F9"/>
<stop offset="0.53" stop-color="#D0CFD0"/>
</linearGradient>
</defs>
</svg>
