<svg width="24" height="20" viewBox="0 0 24 20" fill="none" xmlns="http://www.w3.org/2000/svg">
<path d="M0.183431 5.86818C0.391839 5.75944 0.58282 5.79734 0.766972 5.79687C2.14929 5.79355 3.53161 5.79663 4.91393 5.79426C5.62298 5.79308 5.86836 5.55166 5.87072 4.84068C5.87542 3.44998 5.87142 2.05929 5.87307 0.668591C5.87331 0.481664 5.85117 0.291894 5.90463 0.129133C6.02049 -0.0184651 6.16508 0.00878012 6.29766 0.00878012C9.79607 0.00712171 13.2947 0.0156508 16.7931 1.43542e-05C17.4323 -0.00282863 17.7521 0.416986 17.7659 0.95052C17.7867 1.73969 17.7692 2.53004 17.7735 3.31968C17.7744 3.50471 17.7132 3.65231 17.5792 3.77598C17.4914 3.85724 17.4097 3.94537 17.3253 4.03043C15.1294 6.24085 12.9373 8.45459 10.7352 10.6584C10.3624 11.0315 10.0878 11.4447 9.94749 11.9569C9.68516 12.915 9.38821 13.8641 9.14259 14.8264C8.83387 16.0364 9.56106 17.3069 10.7463 17.668C11.2125 17.8102 11.6965 17.8073 12.1611 17.6822C13.1318 17.4209 14.094 17.1281 15.0592 16.8469C15.4459 16.7343 15.7662 16.5111 16.0481 16.229C16.4715 15.8051 16.8913 15.3775 17.3155 14.9546C17.4198 14.8508 17.5071 14.7153 17.6649 14.6945C17.8218 14.8314 17.7685 14.9961 17.7692 15.1415C17.774 16.3434 17.7692 17.5453 17.774 18.7469C17.7749 18.9938 17.7292 19.2208 17.6119 19.4387C17.4876 19.6699 17.2964 19.7965 17.0461 19.8308C16.9116 19.8493 16.7736 19.8429 16.6373 19.8429C11.4833 19.8434 6.32945 19.8431 1.17578 19.8438C0.884481 19.8438 0.596478 19.8604 0.372293 19.6086C0.230058 19.4489 0.119378 19.2878 0.125501 19.0641C0.129269 18.927 0.123853 18.7896 0.123853 18.6522C0.124088 14.6004 0.123382 10.5485 0.125972 6.49672C0.126208 6.29392 0.0866454 6.08496 0.183431 5.86818Z" fill="black"/>
<path d="M23.1143 6.50878C23.1341 6.72248 23.082 6.91651 22.9407 7.08212C22.8187 7.22498 22.7036 7.37494 22.5717 7.50809C20.1118 9.98765 17.6467 12.4625 15.1917 14.947C14.928 15.214 14.6329 15.3834 14.2797 15.4827C13.5247 15.6942 12.7735 15.9191 12.0195 16.1344C11.8728 16.1764 11.7218 16.2188 11.5711 16.2273C10.9209 16.2638 10.4721 15.7132 10.6461 15.0844C10.8884 14.209 11.1489 13.3388 11.3961 12.4648C11.4821 12.1609 11.6309 11.9095 11.8577 11.6821C14.3845 9.14826 16.9035 6.60663 19.4254 4.0676C19.5217 3.97047 19.6156 3.86741 19.7256 3.78851C20.0727 3.53928 20.5044 3.54686 20.8034 3.83969C21.5132 4.53409 22.2065 5.24531 22.9075 5.94871C23.0627 6.10389 23.1322 6.28869 23.1143 6.50878Z" fill="black"/>
<path d="M4.33734 0.611331C4.38939 1.78951 4.34723 2.99091 4.36207 4.17312C3.87767 4.30579 1.12081 4.30793 0.694336 4.19208C0.705404 4.14469 0.700694 4.0812 0.729895 4.05158C1.84611 2.917 2.96492 1.78501 4.0849 0.654213C4.13223 0.60683 4.19016 0.56608 4.33734 0.611331Z" fill="black"/>
</svg>
