<?xml version="1.0" encoding="utf-8"?>
<!-- Generator: Adobe Illustrator 26.0.1, SVG Export Plug-In . SVG Version: 6.00 Build 0)  -->
<svg version="1.1" id="Layer_1" xmlns="http://www.w3.org/2000/svg" xmlns:xlink="http://www.w3.org/1999/xlink" x="0px" y="0px"
	 viewBox="0 0 923.28 308.38" style="enable-background:new 0 0 923.28 308.38;" xml:space="preserve">
<style type="text/css">
	.st0{fill:url(#SVGID_1_);}
	.st1{fill:url(#SVGID_00000101101891969261530510000008596248525804512421_);}
	.st2{fill:url(#SVGID_00000062905676278790231290000009091529239535461299_);}
	.st3{fill:url(#SVGID_00000065050176223800666740000007131348878611975310_);}
	.st4{fill:url(#SVGID_00000093156895128742742520000011223774112937636784_);}
	.st5{fill:url(#SVGID_00000014612454732145332120000016966845844990063746_);}
	.st6{fill:url(#SVGID_00000109016651189080721050000002415264809231182250_);}
	.st7{fill:url(#SVGID_00000182501902971475460620000000158035257319038103_);}
	.st8{fill:url(#SVGID_00000029010077486018888920000016231843853436793520_);}
	.st9{fill:url(#SVGID_00000000919265717003547560000007552931238438867101_);}
	.st10{fill:url(#SVGID_00000111888707177042142240000014726993061471506860_);}
	.st11{fill:url(#SVGID_00000023984265890169467840000008394198849345415852_);}
	.st12{fill:url(#SVGID_00000134208746542615575520000000716697793666663332_);}
	.st13{fill:url(#SVGID_00000104699075302417793470000011118021387784573590_);}
	.st14{fill:url(#SVGID_00000152981932352306237020000013272728481623462797_);}
	.st15{fill:url(#SVGID_00000030482505695265070650000005855584123854511024_);}
	.st16{fill:url(#SVGID_00000099652764216971251770000012425651929299603347_);}
	.st17{fill:url(#SVGID_00000178924772599639125870000001681964952909875072_);}
	.st18{fill:url(#SVGID_00000103235734257627104910000001396237193357404847_);}
	.st19{fill:url(#SVGID_00000026137303081252395220000004081067872553301919_);}
	.st20{fill:url(#SVGID_00000131365691256639700460000009202885214030752155_);}
	.st21{fill:url(#SVGID_00000035492912193811628280000007776080264634226325_);}
</style>
<g>
	<linearGradient id="SVGID_1_" gradientUnits="userSpaceOnUse" x1="92.7449" y1="-47.2551" x2="92.7449" y2="223.2394">
		<stop  offset="0.35" style="stop-color:#9C9896"/>
		<stop  offset="0.418" style="stop-color:#A19D9B"/>
		<stop  offset="0.5015" style="stop-color:#AFACAA"/>
		<stop  offset="0.593" style="stop-color:#C7C4C3"/>
		<stop  offset="0.6896" style="stop-color:#E7E6E6"/>
		<stop  offset="0.75" style="stop-color:#FFFFFF"/>
		<stop  offset="0.8625" style="stop-color:#D2D0CF"/>
		<stop  offset="0.9506" style="stop-color:#B5B2B1"/>
		<stop  offset="1" style="stop-color:#AAA7A5"/>
	</linearGradient>
	<path class="st0" d="M123.69,169.55h22.59c-3.32,12.65-9.64,22.29-18.97,28.91c-9.34,6.93-21.08,10.39-35.24,10.39
		c-17.17,0-30.57-5.57-40.21-16.72c-9.64-10.84-14.46-26.35-14.46-46.53c0-19.27,4.67-34.33,14-45.18
		c9.64-11.14,23.04-16.72,40.21-16.72c18.07,0,32.07,5.42,42.01,16.26c9.63,11.15,14.46,26.65,14.46,46.53c0,1.21,0,2.26,0,3.16
		c0,0.9,0,1.51,0,1.81c0,1.51-0.16,2.56-0.45,3.16H69.48c0.3,9.34,2.56,16.26,6.78,20.78c3.91,4.82,9.78,7.23,17.62,7.23
		c5.12,0,9.49-1.05,13.1-3.16c0.9-0.3,1.73-0.83,2.48-1.58c0.75-0.75,1.58-1.58,2.48-2.48c0.3-0.9,1.43-2.1,3.39-3.61
		C117.29,170.31,120.08,169.55,123.69,169.55z M69.48,134.31h46.08c-0.61-8.13-2.71-14.15-6.33-18.07
		c-3.92-4.21-9.49-6.33-16.71-6.33c-6.63,0-12.05,2.11-16.26,6.33C72.03,120.47,69.78,126.49,69.48,134.31z"/>
	
		<linearGradient id="SVGID_00000061459146385949704310000012374688960005453488_" gradientUnits="userSpaceOnUse" x1="217.0238" y1="-47.2551" x2="217.0238" y2="223.2394">
		<stop  offset="0.35" style="stop-color:#9C9896"/>
		<stop  offset="0.418" style="stop-color:#A19D9B"/>
		<stop  offset="0.5015" style="stop-color:#AFACAA"/>
		<stop  offset="0.593" style="stop-color:#C7C4C3"/>
		<stop  offset="0.6896" style="stop-color:#E7E6E6"/>
		<stop  offset="0.75" style="stop-color:#FFFFFF"/>
		<stop  offset="0.8625" style="stop-color:#D2D0CF"/>
		<stop  offset="0.9506" style="stop-color:#B5B2B1"/>
		<stop  offset="1" style="stop-color:#AAA7A5"/>
	</linearGradient>
	<path style="fill:url(#SVGID_00000061459146385949704310000012374688960005453488_);" d="M269.43,206.6h-15.81
		c-4.52,0-8.21-1.43-11.07-4.29c-2.87-2.86-4.29-6.55-4.29-11.07V129.8c0-7.23-2.19-12.49-6.55-15.81
		c-4.37-3.31-9.26-4.97-14.68-4.97c-5.42,0-10.24,1.66-14.46,4.97c-4.22,3.32-6.33,8.58-6.33,15.81v76.8h-31.62v-70.47
		c0-20.48,5.34-34.18,16.04-41.11c10.69-6.92,22.51-10.69,35.46-11.29c13.25,0,25.45,3.47,36.59,10.39
		c11.14,6.93,16.72,20.94,16.72,42.01V206.6z"/>
	
		<linearGradient id="SVGID_00000076577360429196522130000011432160391600023945_" gradientUnits="userSpaceOnUse" x1="336.559" y1="-47.2551" x2="336.559" y2="223.2394">
		<stop  offset="0.35" style="stop-color:#9C9896"/>
		<stop  offset="0.418" style="stop-color:#A19D9B"/>
		<stop  offset="0.5015" style="stop-color:#AFACAA"/>
		<stop  offset="0.593" style="stop-color:#C7C4C3"/>
		<stop  offset="0.6896" style="stop-color:#E7E6E6"/>
		<stop  offset="0.75" style="stop-color:#FFFFFF"/>
		<stop  offset="0.8625" style="stop-color:#D2D0CF"/>
		<stop  offset="0.9506" style="stop-color:#B5B2B1"/>
		<stop  offset="1" style="stop-color:#AAA7A5"/>
	</linearGradient>
	<path style="fill:url(#SVGID_00000076577360429196522130000011432160391600023945_);" d="M283.25,166.84h30.72
		c0.3,6.03,2.56,10.55,6.78,13.55c4.52,3.01,10.54,4.52,18.07,4.52c5.42,0,10.09-1.05,14-3.16c3.62-2.1,5.42-4.97,5.42-8.58
		c0-5.42-6.33-9.49-18.98-12.2c-5.42-0.9-9.49-1.81-12.2-2.71c-15.97-3.91-26.65-8.58-32.07-14c-6.03-5.42-9.04-12.65-9.04-21.68
		c0-11.44,4.36-20.93,13.1-28.46c9.04-6.92,20.78-10.39,35.24-10.39c15.66,0,28.16,3.47,37.5,10.39
		c8.73,7.53,13.4,17.32,14.01,29.36h-19.43c-5.73,0-10.09-2.55-13.1-7.68c-1.21-1.2-2.41-2.41-3.61-3.61
		c-3.61-2.71-8.58-4.07-14.91-4.07c-6.03,0-10.55,0.9-13.55,2.71c-2.71,1.81-4.07,4.52-4.07,8.13c0,4.82,7.83,8.89,23.49,12.2
		c1.81,0.61,3.39,1.06,4.74,1.36c1.36,0.3,2.63,0.45,3.84,0.45c15.36,3.92,26.05,8.44,32.07,13.55c5.72,5.42,8.58,12.65,8.58,21.68
		c0,13.26-4.82,23.49-14.46,30.72c-9.04,6.63-22.59,9.94-40.66,9.94c-17.17,0-29.97-3.46-38.4-10.39
		c-8.74-6.92-13.1-17.01-13.1-30.27V166.84z"/>
	
		<linearGradient id="SVGID_00000101086853536227439230000003542373619969184152_" gradientUnits="userSpaceOnUse" x1="424.9241" y1="-47.2551" x2="424.9241" y2="223.2394">
		<stop  offset="0.35" style="stop-color:#9C9896"/>
		<stop  offset="0.418" style="stop-color:#A19D9B"/>
		<stop  offset="0.5015" style="stop-color:#AFACAA"/>
		<stop  offset="0.593" style="stop-color:#C7C4C3"/>
		<stop  offset="0.6896" style="stop-color:#E7E6E6"/>
		<stop  offset="0.75" style="stop-color:#FFFFFF"/>
		<stop  offset="0.8625" style="stop-color:#D2D0CF"/>
		<stop  offset="0.9506" style="stop-color:#B5B2B1"/>
		<stop  offset="1" style="stop-color:#AAA7A5"/>
	</linearGradient>
	<path style="fill:url(#SVGID_00000101086853536227439230000003542373619969184152_);" d="M409.11,51.19h16.26
		c4.21,0,7.83,1.51,10.84,4.52c3.01,3.01,4.52,6.63,4.52,10.84v9.49h-31.62V51.19z M409.11,86.43h16.26c4.21,0,7.83,1.51,10.84,4.52
		c3.01,3.01,4.52,6.63,4.52,10.84V206.6h-31.62V86.43z"/>
	
		<linearGradient id="SVGID_00000145023737161238792970000000813705264455675277_" gradientUnits="userSpaceOnUse" x1="507.4148" y1="-47.2551" x2="507.4148" y2="223.2394">
		<stop  offset="0.35" style="stop-color:#9C9896"/>
		<stop  offset="0.418" style="stop-color:#A19D9B"/>
		<stop  offset="0.5015" style="stop-color:#AFACAA"/>
		<stop  offset="0.593" style="stop-color:#C7C4C3"/>
		<stop  offset="0.6896" style="stop-color:#E7E6E6"/>
		<stop  offset="0.75" style="stop-color:#FFFFFF"/>
		<stop  offset="0.8625" style="stop-color:#D2D0CF"/>
		<stop  offset="0.9506" style="stop-color:#B5B2B1"/>
		<stop  offset="1" style="stop-color:#AAA7A5"/>
	</linearGradient>
	<path style="fill:url(#SVGID_00000145023737161238792970000000813705264455675277_);" d="M533.17,199.37v-7.68
		c-5.42,8.44-12.73,13.71-21.91,15.81c-9.19,2.1-18.3,1.35-27.33-2.26c-9.04-3.61-16.79-10.31-23.27-20.1
		c-6.48-9.78-9.71-22.66-9.71-38.63c0-18.67,4.29-33.8,12.87-45.4c8.58-11.59,22.36-17.39,41.34-17.39
		c14.46,0,27.85,3.92,40.21,11.75c12.35,7.84,18.52,22.29,18.52,43.37v63.7c0,21.08-6.18,35.46-18.52,43.14
		c-12.35,7.68-25.75,11.52-40.21,11.52c-27.71,0-44.88-12.95-51.5-38.85h32.98c2.41,4.21,6.1,7.45,11.07,9.71
		c4.97,2.26,9.94,2.86,14.91,1.81c4.97-1.06,9.49-4,13.55-8.81C530.23,216.23,532.56,209,533.17,199.37z M481.66,147.42
		c0,20.78,6.02,32.3,18.07,34.56c12.04,2.26,20.93-0.52,26.65-8.36c2.71-3.31,4.67-8.51,5.87-15.59c1.2-7.07,1.28-14.08,0.23-21.01
		c-1.06-6.92-3.54-13.1-7.45-18.52c-3.92-5.42-9.64-8.13-17.17-8.13c-10.24,0-17.17,3.77-20.78,11.29
		C483.47,129.2,481.66,137.78,481.66,147.42z"/>
	
		<linearGradient id="SVGID_00000109731300568276191810000012154606560427944344_" gradientUnits="userSpaceOnUse" x1="636.8898" y1="-47.2551" x2="636.8898" y2="223.2394">
		<stop  offset="0.35" style="stop-color:#9C9896"/>
		<stop  offset="0.418" style="stop-color:#A19D9B"/>
		<stop  offset="0.5015" style="stop-color:#AFACAA"/>
		<stop  offset="0.593" style="stop-color:#C7C4C3"/>
		<stop  offset="0.6896" style="stop-color:#E7E6E6"/>
		<stop  offset="0.75" style="stop-color:#FFFFFF"/>
		<stop  offset="0.8625" style="stop-color:#D2D0CF"/>
		<stop  offset="0.9506" style="stop-color:#B5B2B1"/>
		<stop  offset="1" style="stop-color:#AAA7A5"/>
	</linearGradient>
	<path style="fill:url(#SVGID_00000109731300568276191810000012154606560427944344_);" d="M656.32,120.31
		c-4.52-6.32-10.69-9.49-18.52-9.49c-8.44,0-14.91,3.01-19.43,9.04c-4.52,6.03-6.78,14.31-6.78,24.85v61.89h-30.72V51.19h15.36
		c4.21,0,7.83,1.51,10.84,4.52c3.01,3.01,4.52,6.63,4.52,10.84v35.69c5.42-9.04,13.1-14.75,23.04-17.17
		c9.94-2.41,19.42-1.81,28.46,1.81c8.43,3.61,15.51,9.34,21.23,17.17c5.72,7.83,8.58,18.68,8.58,32.53v70.02h-30.27v-62.34
		c0-4.52-0.38-8.65-1.13-12.42C660.76,128.07,659.03,124.23,656.32,120.31z"/>
	
		<linearGradient id="SVGID_00000127752920910755972310000011488268696474335142_" gradientUnits="userSpaceOnUse" x1="738.355" y1="-47.2551" x2="738.355" y2="223.2394">
		<stop  offset="0.35" style="stop-color:#9C9896"/>
		<stop  offset="0.418" style="stop-color:#A19D9B"/>
		<stop  offset="0.5015" style="stop-color:#AFACAA"/>
		<stop  offset="0.593" style="stop-color:#C7C4C3"/>
		<stop  offset="0.6896" style="stop-color:#E7E6E6"/>
		<stop  offset="0.75" style="stop-color:#FFFFFF"/>
		<stop  offset="0.8625" style="stop-color:#D2D0CF"/>
		<stop  offset="0.9506" style="stop-color:#B5B2B1"/>
		<stop  offset="1" style="stop-color:#AAA7A5"/>
	</linearGradient>
	<path style="fill:url(#SVGID_00000127752920910755972310000011488268696474335142_);" d="M763.2,206.6
		c-9.94,0.6-20.71,0.45-32.3-0.45c-11.6-0.9-17.39-8.28-17.39-22.14V51.19h16.26c3.91,0,7.38,1.51,10.39,4.52
		c3.01,3.01,4.52,6.63,4.52,10.84v20.33h18.52v6.32c0,4.52-1.51,8.21-4.52,11.07c-3.02,2.87-6.63,4.29-10.84,4.29h-3.16v66.86
		c0,5.12,3.01,7.68,9.04,7.68h9.49V206.6z"/>
	
		<linearGradient id="SVGID_00000181057107746485804340000005793549296042241691_" gradientUnits="userSpaceOnUse" x1="828.5258" y1="-47.2551" x2="828.5258" y2="223.2394">
		<stop  offset="0.35" style="stop-color:#9C9896"/>
		<stop  offset="0.418" style="stop-color:#A19D9B"/>
		<stop  offset="0.5015" style="stop-color:#AFACAA"/>
		<stop  offset="0.593" style="stop-color:#C7C4C3"/>
		<stop  offset="0.6896" style="stop-color:#E7E6E6"/>
		<stop  offset="0.75" style="stop-color:#FFFFFF"/>
		<stop  offset="0.8625" style="stop-color:#D2D0CF"/>
		<stop  offset="0.9506" style="stop-color:#B5B2B1"/>
		<stop  offset="1" style="stop-color:#AAA7A5"/>
	</linearGradient>
	<path style="fill:url(#SVGID_00000181057107746485804340000005793549296042241691_);" d="M777.48,156.9v-10.84
		c0-6.62,3.31-9.94,9.94-9.94h30.72V95.46h10.84c6.62,0,9.94,3.32,9.94,9.94v30.72h40.66v20.78h-40.66v40.66h-20.78V156.9H777.48z"
		/>
</g>
</svg>
