<?xml version="1.0" encoding="utf-8"?>
<!-- Generator: Adobe Illustrator 26.0.1, SVG Export Plug-In . SVG Version: 6.00 Build 0)  -->
<svg version="1.1" id="Layer_1" xmlns="http://www.w3.org/2000/svg" xmlns:xlink="http://www.w3.org/1999/xlink" x="0px" y="0px"
	 viewBox="0 0 923.28 308.38" style="enable-background:new 0 0 923.28 308.38;" xml:space="preserve">
<style type="text/css">
	.st0{fill:url(#SVGID_1_);}
	.st1{fill:url(#SVGID_00000014618762680579761890000002345522941622952622_);}
	.st2{fill:url(#SVGID_00000177446347191031708650000008060869197682628497_);}
	.st3{fill:url(#SVGID_00000037684139553862934450000006477100092033015958_);}
	.st4{fill:url(#SVGID_00000045610827386414028710000007476916200153929625_);}
	.st5{fill:url(#SVGID_00000048475308303769288410000000370504273562248599_);}
	.st6{fill:url(#SVGID_00000039829176462859650180000004134818741299975862_);}
	.st7{fill:url(#SVGID_00000169528457475263951590000005815082234828755355_);}
	.st8{fill:url(#SVGID_00000005257894081028616850000017599887165447127230_);}
	.st9{fill:url(#SVGID_00000020362446137659639310000011602275636372782771_);}
	.st10{fill:url(#SVGID_00000152960486889618824940000007680993574406233732_);}
	.st11{fill:url(#SVGID_00000112590289010179501600000011610526731597260954_);}
	.st12{fill:url(#SVGID_00000152973333681451958970000013652738016497192879_);}
	.st13{fill:url(#SVGID_00000160890681935454776590000003351414845404519553_);}
	.st14{fill:url(#SVGID_00000013173898857203117730000015157667655659055488_);}
	.st15{fill:url(#SVGID_00000031194127423684504890000010494002221699574922_);}
	.st16{fill:url(#SVGID_00000147209085126638288230000013878834116424203147_);}
	.st17{fill:url(#SVGID_00000162334063201420189740000007760101619559738514_);}
	.st18{fill:url(#SVGID_00000169530061693144343170000009675368100334457498_);}
	.st19{fill:url(#SVGID_00000006682621739667620950000009133217228028093838_);}
	.st20{fill:url(#SVGID_00000031197724237137499340000012233393863513565586_);}
	.st21{fill:url(#SVGID_00000169527236078996044850000008115723101203273398_);}
</style>
<g>
	<linearGradient id="SVGID_1_" gradientUnits="userSpaceOnUse" x1="98.6289" y1="-71.5123" x2="98.6289" y2="322.0468">
		<stop  offset="0.3577" style="stop-color:#020100"/>
		<stop  offset="0.4415" style="stop-color:#060504"/>
		<stop  offset="0.5273" style="stop-color:#121110"/>
		<stop  offset="0.6141" style="stop-color:#262525"/>
		<stop  offset="0.701" style="stop-color:#424241"/>
		<stop  offset="0.7592" style="stop-color:#595959"/>
		<stop  offset="0.8296" style="stop-color:#343434"/>
		<stop  offset="0.8975" style="stop-color:#171717"/>
		<stop  offset="0.9565" style="stop-color:#060606"/>
		<stop  offset="1" style="stop-color:#000000"/>
	</linearGradient>
	<path class="st0" d="M129.34,169.44h22.42c-3.29,12.55-9.57,22.12-18.83,28.7c-9.27,6.88-20.93,10.31-34.97,10.31
		c-17.04,0-30.34-5.53-39.91-16.59c-9.57-10.76-14.35-26.15-14.35-46.18c0-19.13,4.63-34.08,13.9-44.84
		c9.56-11.06,22.87-16.59,39.91-16.59c17.94,0,31.83,5.38,41.7,16.14c9.56,11.06,14.35,26.45,14.35,46.18c0,1.2,0,2.24,0,3.14
		c0,0.9,0,1.5,0,1.79c0,1.5-0.15,2.54-0.45,3.14H75.54c0.29,9.27,2.54,16.14,6.73,20.63c3.88,4.79,9.71,7.17,17.49,7.17
		c5.08,0,9.42-1.04,13-3.14c0.9-0.29,1.72-0.82,2.47-1.57c0.74-0.74,1.57-1.57,2.47-2.47c0.29-0.9,1.42-2.09,3.36-3.59
		C122.99,170.19,125.76,169.44,129.34,169.44z M75.54,134.46h45.74c-0.6-8.07-2.69-14.05-6.28-17.94
		c-3.89-4.18-9.42-6.28-16.59-6.28c-6.58,0-11.96,2.1-16.14,6.28C78.07,120.72,75.83,126.69,75.54,134.46z"/>
	
		<linearGradient id="SVGID_00000061456677763874320060000015951154106639810693_" gradientUnits="userSpaceOnUse" x1="221.9785" y1="-71.5123" x2="221.9785" y2="322.0468">
		<stop  offset="0.3577" style="stop-color:#020100"/>
		<stop  offset="0.4415" style="stop-color:#060504"/>
		<stop  offset="0.5273" style="stop-color:#121110"/>
		<stop  offset="0.6141" style="stop-color:#262525"/>
		<stop  offset="0.701" style="stop-color:#424241"/>
		<stop  offset="0.7592" style="stop-color:#595959"/>
		<stop  offset="0.8296" style="stop-color:#343434"/>
		<stop  offset="0.8975" style="stop-color:#171717"/>
		<stop  offset="0.9565" style="stop-color:#060606"/>
		<stop  offset="1" style="stop-color:#000000"/>
	</linearGradient>
	<path style="fill:url(#SVGID_00000061456677763874320060000015951154106639810693_);" d="M273.99,206.2H258.3
		c-4.48,0-8.15-1.41-10.99-4.26c-2.84-2.84-4.26-6.5-4.26-10.99v-60.98c0-7.17-2.17-12.4-6.5-15.69c-4.34-3.29-9.19-4.93-14.57-4.93
		c-5.38,0-10.17,1.65-14.35,4.93c-4.19,3.29-6.28,8.52-6.28,15.69v76.22h-31.39v-69.95c0-20.32,5.3-33.92,15.92-40.8
		c10.61-6.87,22.34-10.61,35.2-11.21c13.15,0,25.26,3.44,36.32,10.31c11.06,6.88,16.59,20.78,16.59,41.7V206.2z"/>
	
		<linearGradient id="SVGID_00000041261373037617606660000010572849185533104298_" gradientUnits="userSpaceOnUse" x1="340.6197" y1="-71.5123" x2="340.6197" y2="322.0468">
		<stop  offset="0.3577" style="stop-color:#020100"/>
		<stop  offset="0.4415" style="stop-color:#060504"/>
		<stop  offset="0.5273" style="stop-color:#121110"/>
		<stop  offset="0.6141" style="stop-color:#262525"/>
		<stop  offset="0.701" style="stop-color:#424241"/>
		<stop  offset="0.7592" style="stop-color:#595959"/>
		<stop  offset="0.8296" style="stop-color:#343434"/>
		<stop  offset="0.8975" style="stop-color:#171717"/>
		<stop  offset="0.9565" style="stop-color:#060606"/>
		<stop  offset="1" style="stop-color:#000000"/>
	</linearGradient>
	<path style="fill:url(#SVGID_00000041261373037617606660000010572849185533104298_);" d="M287.71,166.75h30.49
		c0.29,5.98,2.54,10.47,6.73,13.45c4.48,2.99,10.46,4.48,17.94,4.48c5.38,0,10.01-1.04,13.9-3.14c3.59-2.09,5.38-4.93,5.38-8.52
		c0-5.38-6.28-9.42-18.83-12.11c-5.38-0.9-9.42-1.79-12.11-2.69c-15.85-3.88-26.45-8.52-31.83-13.9
		c-5.98-5.38-8.97-12.55-8.97-21.52c0-11.36,4.33-20.77,13-28.25c8.97-6.87,20.63-10.31,34.97-10.31c15.54,0,27.95,3.44,37.22,10.31
		c8.67,7.48,13.3,17.19,13.9,29.14h-19.28c-5.68,0-10.02-2.54-13-7.62c-1.2-1.19-2.4-2.39-3.59-3.59c-3.59-2.69-8.52-4.04-14.8-4.04
		c-5.98,0-10.47,0.9-13.45,2.69c-2.69,1.79-4.04,4.48-4.04,8.07c0,4.79,7.77,8.82,23.32,12.11c1.79,0.6,3.36,1.05,4.71,1.35
		c1.34,0.3,2.61,0.45,3.81,0.45c15.25,3.89,25.85,8.37,31.83,13.45c5.68,5.38,8.52,12.55,8.52,21.52c0,13.16-4.78,23.32-14.35,30.49
		c-8.97,6.58-22.42,9.86-40.36,9.86c-17.04,0-29.75-3.43-38.11-10.31c-8.67-6.87-13-16.88-13-30.04V166.75z"/>
	
		<linearGradient id="SVGID_00000016061230611250681130000004562015798901479809_" gradientUnits="userSpaceOnUse" x1="428.3241" y1="-71.5123" x2="428.3241" y2="322.0468">
		<stop  offset="0.3577" style="stop-color:#020100"/>
		<stop  offset="0.4415" style="stop-color:#060504"/>
		<stop  offset="0.5273" style="stop-color:#121110"/>
		<stop  offset="0.6141" style="stop-color:#262525"/>
		<stop  offset="0.701" style="stop-color:#424241"/>
		<stop  offset="0.7592" style="stop-color:#595959"/>
		<stop  offset="0.8296" style="stop-color:#343434"/>
		<stop  offset="0.8975" style="stop-color:#171717"/>
		<stop  offset="0.9565" style="stop-color:#060606"/>
		<stop  offset="1" style="stop-color:#000000"/>
	</linearGradient>
	<path style="fill:url(#SVGID_00000016061230611250681130000004562015798901479809_);" d="M412.63,51.96h16.14
		c4.18,0,7.77,1.5,10.76,4.48c2.98,2.99,4.48,6.58,4.48,10.76v9.42h-31.39V51.96z M412.63,86.93h16.14c4.18,0,7.77,1.5,10.76,4.48
		c2.98,2.99,4.48,6.58,4.48,10.76V206.2h-31.39V86.93z"/>
	
		<linearGradient id="SVGID_00000003825247629049852350000006184066625156828813_" gradientUnits="userSpaceOnUse" x1="510.1978" y1="-71.5123" x2="510.1978" y2="322.0468">
		<stop  offset="0.3577" style="stop-color:#020100"/>
		<stop  offset="0.4415" style="stop-color:#060504"/>
		<stop  offset="0.5273" style="stop-color:#121110"/>
		<stop  offset="0.6141" style="stop-color:#262525"/>
		<stop  offset="0.701" style="stop-color:#424241"/>
		<stop  offset="0.7592" style="stop-color:#595959"/>
		<stop  offset="0.8296" style="stop-color:#343434"/>
		<stop  offset="0.8975" style="stop-color:#171717"/>
		<stop  offset="0.9565" style="stop-color:#060606"/>
		<stop  offset="1" style="stop-color:#000000"/>
	</linearGradient>
	<path style="fill:url(#SVGID_00000003825247629049852350000006184066625156828813_);" d="M535.76,199.03v-7.62
		c-5.38,8.37-12.63,13.61-21.75,15.69c-9.12,2.09-18.16,1.34-27.13-2.24c-8.97-3.59-16.67-10.24-23.09-19.95
		c-6.43-9.71-9.64-22.49-9.64-38.34c0-18.53,4.26-33.55,12.78-45.06c8.52-11.5,22.19-17.26,41.03-17.26
		c14.35,0,27.65,3.89,39.91,11.66c12.25,7.78,18.38,22.13,18.38,43.04v63.22c0,20.92-6.13,35.2-18.38,42.82
		c-12.26,7.62-25.56,11.43-39.91,11.43c-27.51,0-44.54-12.86-51.12-38.56h32.73c2.39,4.18,6.05,7.4,10.99,9.64
		c4.93,2.24,9.86,2.84,14.8,1.79c4.93-1.05,9.42-3.97,13.45-8.74C532.84,215.77,535.15,208.59,535.76,199.03z M484.64,147.47
		c0,20.63,5.98,32.06,17.94,34.3c11.95,2.24,20.77-0.52,26.45-8.3c2.69-3.29,4.63-8.44,5.83-15.47c1.19-7.02,1.27-13.97,0.22-20.85
		c-1.05-6.87-3.52-13-7.4-18.38c-3.89-5.38-9.57-8.07-17.04-8.07c-10.16,0-17.04,3.74-20.62,11.21
		C486.43,129.38,484.64,137.9,484.64,147.47z"/>
	
		<linearGradient id="SVGID_00000046306080404244481420000010160409624244319116_" gradientUnits="userSpaceOnUse" x1="638.7046" y1="-71.5123" x2="638.7046" y2="322.0468">
		<stop  offset="0.3577" style="stop-color:#020100"/>
		<stop  offset="0.4415" style="stop-color:#060504"/>
		<stop  offset="0.5273" style="stop-color:#121110"/>
		<stop  offset="0.6141" style="stop-color:#262525"/>
		<stop  offset="0.701" style="stop-color:#424241"/>
		<stop  offset="0.7592" style="stop-color:#595959"/>
		<stop  offset="0.8296" style="stop-color:#343434"/>
		<stop  offset="0.8975" style="stop-color:#171717"/>
		<stop  offset="0.9565" style="stop-color:#060606"/>
		<stop  offset="1" style="stop-color:#000000"/>
	</linearGradient>
	<path style="fill:url(#SVGID_00000046306080404244481420000010160409624244319116_);" d="M657.99,120.56
		c-4.48-6.28-10.61-9.42-18.38-9.42c-8.37,0-14.8,2.99-19.28,8.97c-4.48,5.98-6.73,14.2-6.73,24.66v61.43h-30.49V51.96h15.25
		c4.18,0,7.77,1.5,10.76,4.48c2.98,2.99,4.48,6.58,4.48,10.76v35.42c5.38-8.97,13-14.64,22.87-17.04
		c9.86-2.39,19.28-1.79,28.25,1.79c8.37,3.59,15.39,9.27,21.07,17.04c5.67,7.78,8.52,18.54,8.52,32.28v69.5h-30.04v-61.88
		c0-4.48-0.38-8.59-1.12-12.33C662.39,128.26,660.67,124.45,657.99,120.56z"/>
	
		<linearGradient id="SVGID_00000170990962278316404450000002303616251788389561_" gradientUnits="userSpaceOnUse" x1="739.4111" y1="-71.5123" x2="739.4111" y2="322.0468">
		<stop  offset="0.3577" style="stop-color:#020100"/>
		<stop  offset="0.4415" style="stop-color:#060504"/>
		<stop  offset="0.5273" style="stop-color:#121110"/>
		<stop  offset="0.6141" style="stop-color:#262525"/>
		<stop  offset="0.701" style="stop-color:#424241"/>
		<stop  offset="0.7592" style="stop-color:#595959"/>
		<stop  offset="0.8296" style="stop-color:#343434"/>
		<stop  offset="0.8975" style="stop-color:#171717"/>
		<stop  offset="0.9565" style="stop-color:#060606"/>
		<stop  offset="1" style="stop-color:#000000"/>
	</linearGradient>
	<path style="fill:url(#SVGID_00000170990962278316404450000002303616251788389561_);" d="M764.07,206.2
		c-9.86,0.6-20.56,0.45-32.06-0.45c-11.51-0.9-17.26-8.22-17.26-21.97V51.96h16.14c3.88,0,7.32,1.5,10.31,4.48
		c2.98,2.99,4.48,6.58,4.48,10.76v20.18h18.38v6.28c0,4.48-1.5,8.15-4.48,10.99c-2.99,2.84-6.58,4.26-10.76,4.26h-3.14v66.36
		c0,5.09,2.98,7.62,8.97,7.62h9.42V206.2z"/>
	
		<linearGradient id="SVGID_00000112595660637441414310000013160029725971999908_" gradientUnits="userSpaceOnUse" x1="828.9075" y1="-71.5123" x2="828.9075" y2="322.0468">
		<stop  offset="0.3577" style="stop-color:#020100"/>
		<stop  offset="0.4415" style="stop-color:#060504"/>
		<stop  offset="0.5273" style="stop-color:#121110"/>
		<stop  offset="0.6141" style="stop-color:#262525"/>
		<stop  offset="0.701" style="stop-color:#424241"/>
		<stop  offset="0.7592" style="stop-color:#595959"/>
		<stop  offset="0.8296" style="stop-color:#343434"/>
		<stop  offset="0.8975" style="stop-color:#171717"/>
		<stop  offset="0.9565" style="stop-color:#060606"/>
		<stop  offset="1" style="stop-color:#000000"/>
	</linearGradient>
	<path style="fill:url(#SVGID_00000112595660637441414310000013160029725971999908_);" d="M778.24,156.88v-10.76
		c0-6.57,3.29-9.86,9.86-9.86h30.49V95.9h10.76c6.57,0,9.86,3.29,9.86,9.86v30.49h40.35v20.63h-40.35v40.35h-20.63v-40.35H778.24z"
		/>
</g>
</svg>
